# xmcd
#
# Track frame offsets:
#	150
#	13260
#	27200
#	43281
#	56000
#	71954
#	82970
#	99677
#	113661
#	125805
#	144078
#
# Disc length: 2129 seconds
# Revision: 0
# Processed by: cddbd v1.5.2PL0 Copyright (c) Steve Scherf et al.
# Submitted via: dBpowerAMP V12.0
#
DISCID=9b084f0b
DTITLE=Nothin' Fancy - Its A Good Feeling
DYEAR=2017
DGENRE=Bluegrass
TTITLE0=Its a Good Thing
TTITLE1=Lonely Dancer
TTITLE2=The Golden Rule
TTITLE3=Kiss An Angel Good Morning
TTITLE4=Steel Bars
TTITLE5=Hard Hearted
TTITLE6=Guitar Suitcase and a Bible
TTITLE7=Over and Over
TTITLE8=Red Wing
TTITLE9=A Daisy a Day
TTITLE10=Shes Not the One
EXTD=
EXTT0=
EXTT1=
EXTT2=
EXTT3=
EXTT4=
EXTT5=
EXTT6=
EXTT7=
EXTT8=
EXTT9=
EXTT10=
PLAYORDER=
